# xmcd CD database file
# Copyright (C) 1993-1996 Ti Kan
#
# Track frame offsets:
# 182
# 24467
# 41417
# 54622
# 65065
# 76200
# 90160
# 103302
# 120387
#
# Disc length: 2375 seconds
#
# Revision: 0
# Processed by: cddbd v1.4b41PL1 Copyright (c) Steve Scherf et al.
# Submitted via: inCDius 1.1b4
#
DISCID=6a094509
DTITLE=Joseph Spence - Happy all the time
DYEAR=1900
DGENRE=
TTITLE0=Out on the rolling sea
TTITLE1=Bimini gal
TTITLE2=We shall be happy
TTITLE3=The crow
TTITLE4=Diamond on earth
TTITLE5=Uncle Lou - No lazy man
TTITLE6=Oh, how I love Jesus
TTITLE7=Conch ain't got no bone
TTITLE8=Hallelujah side
EXTD=Hannibal Records 1985\nHNCD 4419
EXTT0=
EXTT1=
EXTT2=
EXTT3=
EXTT4=
EXTT5=
EXTT6=
EXTT7=
EXTT8=
PLAYORDER=
